<svg id="Layer_1" data-name="Layer 1" xmlns="http://www.w3.org/2000/svg" viewBox="0 0 637.78313 599.26984">
  <g>
    <path d="M281.70067,68.04q-.55.08-.68-.17" style="fill: none;stroke: #c8838d;stroke-width: 2px"/>
    <path d="M281.02065,67.87l-76.82.5a2.7524,2.7524,0,0,0-2.52,1.46l-82.36,141.52" style="fill: none;stroke: #e4a23d;stroke-width: 2px"/>
    <path d="M398.54067,70.94l-176.02,302.49" style="fill: none;stroke: #c857ac;stroke-width: 2px"/>
    <path d="M222.52067,373.43l-11.84,20.2a1.65863,1.65863,0,0,1-1.53.88l-64.84.23" style="fill: none;stroke: #e060bb;stroke-width: 2px"/>
    <path d="M119.57066,211.6l76.43-.63a2.82,2.82,0,0,0,2.42-1.4q40.95-70.5,82.14-141.16a.572.572,0,0,0,.46-.54" style="fill: none;stroke: #dc92af;stroke-width: 2px"/>
    <path d="M388.29067,120.45q-.69-.13-.95.26-56.25,86.63-112.23,173.42-5.04,7.8-10.91,16.75-22.11,33.68-39.11,60.35a22.125,22.125,0,0,1-1.93,2.65.3344.3344,0,0,1-.59-.03.38821.38821,0,0,1-.05-.42" style="fill: none;stroke: #e74368;stroke-width: 2px"/>
    <path d="M348.11065,489.73a2.7351,2.7351,0,0,0-.73.99c-7.55,18.58-18.71,35.07-32.21,49.81a344.81646,344.81646,0,0,1-58.57,51.04q-.09.06-.72.44-1.49.92-.06,1.61" style="fill: none;stroke: #e74368;stroke-width: 2px"/>
    <path d="M255.82067,593.62l-11.09,4.73" style="fill: none;stroke: #af81ad;stroke-width: 2px"/>
    <path d="M352.71065,521.24c-27.3,29.56-59.97,56.36-96.89,72.37994" style="fill: none;stroke: #97789e;stroke-width: 2px"/>
    <path d="M392.96065,596.59q-16.22-11.42-24.31-27.05a155.07462,155.07462,0,0,1-15.22-46.89,1.94,1.94,0,0,0-.34-.85l-.38-.56" style="fill: none;stroke: #30acda;stroke-width: 2px"/>
    <path d="M352.71065,521.24a2.60875,2.60875,0,0,1,.76-.99" style="fill: none;stroke: #686e94;stroke-width: 2px"/>
  </g>
  <path d="M281.70067,68.04q-.55.08-.68-.17l-76.82.5a2.7524,2.7524,0,0,0-2.52,1.46l-82.36,141.52-118.72.75a.6.6,0,0,1-.3-1.12c1.72-.99,1.5-1.99,2.24-3.28q59.88-102.8,119.68-205.67a.83577.83577,0,0,1,.76-.43q8.38.09,16.83.01a1.47615,1.47615,0,0,0,.68-.18,1.83948,1.83948,0,0,1,.91-.24q66.58-.34,133.16-.52a1.55969,1.55969,0,0,0,.78-.22,1.83871,1.83871,0,0,1,.93-.27l43.31-.18a.31557.31557,0,0,1,.306.31253.29161.29161,0,0,1-.156.25747,1.27206,1.27206,0,0,0-.47.5q-18.69,32.05-37.38,64.1A3.33425,3.33425,0,0,0,281.70067,68.04Z" style="fill: #f3af3d"/>
  <path d="M398.54067,70.94l-176.02,302.49-11.84,20.2a1.65863,1.65863,0,0,1-1.53.88l-64.84.23-131.44.89q-.41.01-.21-.35l106.91-183.68,76.43-.63a2.82,2.82,0,0,0,2.42-1.4q40.95-70.5,82.14-141.16a.572.572,0,0,0,.46-.54q.13.25.68.17,8.41-.15,16.66-.1a24.77245,24.77245,0,0,0,4.28-.64c2.85-.59,5.45.63,7.9.61q44.56-.29,89.12-.49.44,0,.4.44A3.61564,3.61564,0,0,1,398.54067,70.94Z" style="fill: #2050c4"/>
  <path d="M281.02065,67.87a.572.572,0,0,1-.46.54q-41.19,70.66-82.14,141.16a2.82,2.82,0,0,1-2.42,1.4l-76.43.63q-.12-.13-.25-.25l82.36-141.52a2.7524,2.7524,0,0,1,2.52-1.46Z" style="fill: #5c6f86"/>
  <path d="M398.54067,70.94a4.85518,4.85518,0,0,1,.09,3.79q-.96,2.8-1,2.95-4.93,21.34-9.34,42.77-.69-.13-.95.26-56.25,86.63-112.23,173.42-5.04,7.8-10.91,16.75-22.11,33.68-39.11,60.35a22.125,22.125,0,0,1-1.93,2.65.3344.3344,0,0,1-.59-.03.38821.38821,0,0,1-.05-.42Z" style="fill: #489096"/>
  <path d="M388.29067,120.45c-15.42,72.87-28.28,146.89-35.97,220.46-5.05,48.38-7.32,98.15-4.2,147.25a13.7774,13.7774,0,0,1-.01,1.57,2.7351,2.7351,0,0,0-.73.99c-7.55,18.58-18.71,35.07-32.21,49.81a344.81646,344.81646,0,0,1-58.57,51.04q-.09.06-.72.44-1.49.92-.06,1.61l-11.09,4.73a92.78865,92.78865,0,0,1-32.17-5.6q-39.87-14.87-55.88-53.43a116.4682,116.4682,0,0,1-5.72-19.13c-7.96-36.12-8.93-72.54-7.58-109.79q.37-10.06.93-15.66l64.84-.23a1.65863,1.65863,0,0,0,1.53-.88l11.84-20.2a.38821.38821,0,0,0,.05.42.3344.3344,0,0,0,.59.03,22.125,22.125,0,0,0,1.93-2.65q17-26.67,39.11-60.35,5.87-8.95,10.91-16.75,55.98-86.79,112.23-173.42Q387.60067,120.32,388.29067,120.45Z" style="fill: #5eb182"/>
  <path d="M392.96065,596.59q-16.22-11.42-24.31-27.05a155.07462,155.07462,0,0,1-15.22-46.89,1.94,1.94,0,0,0-.34-.85l-.38-.56a2.60875,2.60875,0,0,1,.76-.99,3.61056,3.61056,0,0,0,1.72-.73c37.07-40.45,67.84-85.29,94.95-133.08q26.99-47.56,49.47-97.41a.74806.74806,0,0,1,.29468-.35186,1.02107,1.02107,0,0,1,.46533-.08814,4.24592,4.24592,0,0,1,.55862.00507c.246.0036.63507.00857,1.11145.01114,1.1814.00638,4.95194.06051,11.05-.39621,4.3916-.32892,6.58734-.49,124.31-.49q.50994,0,.34.48a1087.68767,1087.68767,0,0,1-58.19,135.68q-5.4,10.55-16.29,29.66a507.24494,507.24494,0,0,1-57.26,81.29c-11.34,13.1-25.23,26.64-39.8,36.35A151.27591,151.27591,0,0,1,392.96065,596.59Z" style="fill: #2050c4"/>
  <path d="M348.11065,489.73q.44.29.52,1.42a245.28537,245.28537,0,0,0,3.57,27.62q.28,1.5,1.27,1.48a2.60875,2.60875,0,0,0-.76.99c-27.3,29.56-59.97,56.36-96.89,72.37994q-1.43-.68994.06-1.61.63-.38.72-.44a344.81646,344.81646,0,0,0,58.57-51.04c13.5-14.74,24.66-31.23,32.21-49.81A2.7351,2.7351,0,0,1,348.11065,489.73Z" style="fill: #489096"/>
  <path d="M352.71065,521.24l.38.56a1.94,1.94,0,0,1,.34.85,155.07462,155.07462,0,0,0,15.22,46.89q8.09,15.63,24.31,27.05a48.42391,48.42391,0,0,1-7.9.74q-46.25.28007-92.5.35a1.26343,1.26343,0,0,0-.7.2,1.58167,1.58167,0,0,1-.88.26l-46.25.21,11.09-4.73C292.74065,577.6,325.41067,550.8,352.71065,521.24Z" style="fill: #3470ad"/>
</svg>
