<?xml version="1.0" encoding="UTF-8"?>
<svg id="Layer_2" data-name="Layer 2" xmlns="http://www.w3.org/2000/svg" xmlns:xlink="http://www.w3.org/1999/xlink" viewBox="0 0 375.48 362.93">
  <defs>
    <style>
      .cls-1 {
        fill: url(#linear-gradient-2);
      }

      .cls-2 {
        fill: url(#linear-gradient);
      }
    </style>
    <linearGradient id="linear-gradient" x1="131.1" y1="181.46" x2="375.48" y2="181.46" gradientUnits="userSpaceOnUse">
      <stop offset="0" stop-color="#08b1b9"/>
      <stop offset=".5" stop-color="#0b81b5"/>
      <stop offset="1" stop-color="#7841a3"/>
    </linearGradient>
    <linearGradient id="linear-gradient-2" x1="0" y1="181.63" x2="244.6" y2="181.63" gradientUnits="userSpaceOnUse">
      <stop offset="0" stop-color="#7841a3"/>
      <stop offset=".5" stop-color="#0b81b5"/>
      <stop offset="1" stop-color="#08b1b9"/>
    </linearGradient>
  </defs>
  <g id="Layer_1-2" data-name="Layer 1">
    <g>
      <path class="cls-2" d="M375.46,242.13c-.02-4.99-.04-9.39-.07-12.55,0-1.63-.03-2.94-.05-3.85-.01-.56-.03-1.01-.04-1.3-.18-3.93-1.77-7-4.03-9.14l-33.79-33.79,33.43-33.43c2.47-2.15,4.32-5.47,4.39-10.28,.01-.49,.01-1.2,.02-2.12,.01-1.75,.02-4.25,.03-7.26,.01-5.98,.02-13.94,.02-21.91s-.01-15.93-.02-21.91c-.01-3.01-.02-5.51-.03-7.26,0-.92,0-1.63-.02-2.12-.07-4.81-1.92-8.13-4.39-10.28L310.11,4.13c-2.39-2.39-5.62-3.76-9-3.81q-29.92-.43-63.99,0c-3.4,.04-6.64,1.41-9.03,3.81l-93.18,93.18c-5.08,5.07-5.08,13.31,0,18.38,5.07,5.08,13.31,5.08,18.38,0L242.73,26.25c26.61-.33,29.74-.34,52.73-.01l53.88,53.88c.05,11.78,.05,40.98,0,52.76l-30.24,30.24-26.67-26.67c-6.23-6.23-14.51-9.67-23.33-9.67s-17.1,3.44-23.33,9.67l-35.86,35.86c-5.08,5.07-5.08,13.31,0,18.38l35.86,35.86c6.23,6.23,14.52,9.67,23.33,9.67s17.1-3.44,23.33-9.67l26.67-26.67,30.3,30.31c.11,11.62,.11,41,0,52.62l-54.01,54.02c-11.58,.13-41,.13-52.58,0l-55.33-55.33-34.19-34.19c-5.07-5.08-13.31-5.08-18.38,0-5.08,5.07-5.08,13.31,0,18.38l93.18,93.18h.01c2.15,2.15,5.18,3.66,9.01,3.84,.37,.02,.92,.04,1.63,.05,1.17,.03,2.86,.05,4.94,.07,4.04,.04,9.61,.07,15.69,.08,3.22,.01,6.51,.01,9.76,.01,9.68,0,18.98-.03,24.91-.08,2.21-.02,4.02-.05,5.27-.07,.75-.02,1.33-.04,1.72-.06,1.94-.09,3.67-.51,5.19-1.18,1.51-.67,2.81-1.58,3.89-2.66l60.85-60.85c2.39-2.11,4.25-5.44,4.37-10.47,.02-.75,.04-1.84,.05-3.2,.03-2.61,.05-6.29,.07-10.55,.03-9.28,.04-21.71,.01-31.67ZM144.1,112.59c-3.36,0-6.09-2.73-6.09-6.09s2.73-6.09,6.09-6.09,6.09,2.73,6.09,6.09-2.73,6.09-6.09,6.09Zm129.95,95.58c-1.32,1.32-3.08,2.05-4.95,2.05s-3.63-.73-4.95-2.05l-26.67-26.67,26.67-26.67c1.32-1.32,3.08-2.05,4.95-2.05s3.63,.73,4.95,2.05l26.66,26.67-26.66,26.67Zm-129.35,54.17c-3.36,0-6.09-2.73-6.09-6.09s2.73-6.09,6.09-6.09,6.09,2.72,6.09,6.09-2.73,6.09-6.09,6.09Zm105.12,83.9c.15,.53,.26,1.07,.33,1.63-.07-.55-.19-1.1-.33-1.63Zm38.84-.92c.48-1.39,1.19-2.63,2.07-3.71-.88,1.12-1.59,2.38-2.07,3.71Zm71.56-107.8c-2.1-.32-3.95-1.13-5.51-2.27,1.64,1.17,3.53,1.95,5.51,2.27Zm-7.13,41.61c1.84-1.88,4.3-3.24,7.23-3.66-2.72,.41-5.26,1.69-7.23,3.66Z"/>
      <path class="cls-1" d="M222.41,247.31l-34.19,34.19-55.35,55.34c-11.55,.14-40.99,.08-52.58-.04l-54.13-54.12c-.21-11.37-.21-40.99,0-52.36l30.44-30.44,26.67,26.67c12.86,12.87,33.8,12.87,46.66,0l35.86-35.86c2.44-2.44,3.81-5.74,3.81-9.19s-1.37-6.75-3.81-9.19l-35.86-35.86c-12.86-12.87-33.8-12.87-46.66,0l-26.67,26.67-30.43-30.44c-.21-11.52-.22-41.14-.01-52.36L80.16,26.32h52.88l89.37,89.37c5.07,5.08,13.31,5.08,18.38,0,5.08-5.07,5.08-13.31,0-18.38L147.61,4.13c-2.44-2.44-5.74-3.81-9.19-3.81h-63.64c-3.45,0-6.75,1.37-9.19,3.81L4.23,65.49c-.82,.81-1.52,1.74-2.1,2.74C.1,71.78-.02,72,0,106.6c.03,34.6,.07,34.67,2.17,38.27,.68,1.16,1.52,2.19,2.48,3.07l33.57,33.56L4.78,214.93c-2.34,2.04-4.19,5.22-4.45,10-.04,.71-.08,1.76-.11,3.08-.06,2.29-.11,5.52-.14,9.6-.08,9.2-.1,21.95-.04,32.46,.03,5.45,.08,10.02,.14,13.21,.03,1.78,.07,3.22,.12,4.2,.22,4.98,1.96,8.17,4.11,10.21l60.92,60.93c3.75,4.02,8.13,4.09,12.01,4.15,1.76,.03,4.27,.05,7.27,.07,5.93,.04,13.83,.07,21.75,.08,4.41,0,8.26,.01,11.62,.01,22.77,0,23.12-.17,25.9-1.45,1.39-.64,2.65-1.53,3.73-2.61l93.18-93.18c5.08-5.07,5.08-13.31,0-18.38-5.07-5.08-13.31-5.08-18.38,0Zm-120.76-92.48c2.73-2.73,7.17-2.73,9.9,0l26.67,26.67-26.67,26.67c-2.73,2.72-7.17,2.72-9.9,0l-26.67-26.67,26.67-26.67Zm125.65-52.63c1.1-1.11,2.62-1.79,4.3-1.79,3.36,0,6.09,2.73,6.09,6.09s-2.73,6.09-6.09,6.09-6.09-2.73-6.09-6.09c0-1.68,.68-3.2,1.79-4.3ZM15.9,237.43c.47-.09,.94-.21,1.4-.35-.45,.15-.92,.26-1.4,.35Zm5.24-2.29c-.38,.29-.79,.56-1.21,.79,.42-.24,.82-.51,1.21-.79,.51-.38,1.01-.81,1.47-1.27-.44,.46-.94,.89-1.47,1.27Zm210.74,27.2c-3.36,0-6.09-2.73-6.09-6.09s2.73-6.09,6.09-6.09,6.09,2.72,6.09,6.09-2.73,6.09-6.09,6.09Z"/>
    </g>
  </g>
</svg>